<svg width="75" height="75" viewBox="0 0 75 75" fill="none" xmlns="http://www.w3.org/2000/svg">
<g clip-path="url(#clip0_1_1562)">
<mask id="mask0_1_1562" style="mask-type:alpha" maskUnits="userSpaceOnUse" x="1" y="1" width="73" height="73">
<path d="M73.3333 1.6875H1.33334V73.6875H73.3333V1.6875Z" fill="white"/>
</mask>
<g mask="url(#mask0_1_1562)">
<path d="M73.3333 1.6875H1.33334V73.6875H73.3333V1.6875Z" fill="white"/>
<path d="M32.2366 35.5509C32.2251 35.5856 32.2028 35.6158 32.1731 35.6371C32.1434 35.6585 32.1076 35.6699 32.071 35.6697H25.2301L30.7723 39.6414C30.8002 39.6619 30.8336 39.6734 30.8681 39.6746C30.9027 39.6757 30.9367 39.6663 30.9658 39.6477C32.4985 38.7072 33.8395 38.0547 36.6898 37.3185C36.6898 37.3185 32.3158 40.5504 29.4529 44.172C29.3895 44.2503 29.3413 44.3397 29.3107 44.4357L28.7149 46.2465L34.2499 42.2793C34.2795 42.2573 34.3153 42.2454 34.3521 42.2454C34.3889 42.2454 34.4247 42.2573 34.4542 42.2793L39.9892 46.2465L37.8751 39.8259C37.8636 39.7916 37.8635 39.7544 37.8748 39.72C37.8862 39.6856 37.9084 39.6558 37.9381 39.6351L43.4731 35.6679H36.6331C36.5965 35.6681 36.5608 35.6567 36.5311 35.6353C36.5014 35.614 36.4791 35.5838 36.4675 35.5491L34.3534 29.1294L32.2366 35.5509Z" fill="url(#paint0_linear_1_1562)"/>
<path d="M67.9333 37.0206H63.6197V32.7645H61.331V37.0206H57.02V39.213H61.331V43.4682H63.6197V39.213H67.9333V37.0206ZM49.3016 34.0056C50.4203 34.0056 51.1348 34.5789 51.1348 35.5275C51.1348 36.5193 50.4203 37.2258 49.3016 37.2258H47.5124V34.0065H49.3007L49.3016 34.0056ZM50.7091 39.4749C52.6306 39.2328 54.2192 37.6002 54.2192 35.5275C54.2192 32.8374 52.3634 31.3605 49.3682 31.3605H44.4721V44.9019H47.5133V39.5415L51.1565 44.901H54.6881L50.7091 39.4749ZM26.347 31.3578H17.293V34.0929H20.2675V44.9001H23.3752V34.0929H26.3488V31.3578H26.347ZM11.5744 36.3222C10.7032 35.9244 10.3675 35.5059 10.3675 34.9542C10.3675 34.3152 10.9264 33.7842 11.7535 33.8076C12.5131 33.8292 13.072 34.2261 13.4968 35.1756L16.1113 34.0506C15.3967 32.2416 13.9423 31.1832 11.596 31.1832C9.11475 31.1832 7.28145 32.7933 7.28145 34.9542C7.28145 36.432 7.99605 37.6452 9.82935 38.5488L11.6626 39.4533C12.6913 39.9609 13.1827 40.3362 13.1827 41.0859C13.1827 41.8806 12.5113 42.4539 11.6626 42.4539C10.7464 42.4539 9.92025 41.9463 9.53865 40.7997L6.76665 41.5935C7.39305 43.821 9.24885 45.1224 11.6626 45.1224C14.278 45.1224 16.2904 43.4682 16.2904 41.0859C16.2904 39.2562 15.3067 38.0205 13.3159 37.116L11.5744 36.3213V36.3222Z" fill="#261E3C"/>
</g>
</g>
<rect x="0.833344" y="1.1875" width="73" height="73" rx="36.5" stroke="#EFEFEF"/>
<defs>
<linearGradient id="paint0_linear_1_1562" x1="26.0608" y1="47.4174" x2="42.2725" y2="30.9861" gradientUnits="userSpaceOnUse">
<stop stop-color="#FA1660"/>
<stop offset="0.28" stop-color="#FA1660"/>
<stop offset="0.78" stop-color="#FF6E00"/>
<stop offset="1" stop-color="#FF6E00"/>
</linearGradient>
<clipPath id="clip0_1_1562">
<rect width="72" height="72" fill="white" transform="translate(1.33334 1.6875)"/>
</clipPath>
</defs>
</svg>
