<svg width="49" height="49" viewBox="0 0 49 49" fill="none" xmlns="http://www.w3.org/2000/svg">
<g clip-path="url(#clip0_1_1815)">
<path d="M8.6 46.375V42.375" stroke="#3483FA" stroke-miterlimit="10" stroke-linecap="square"/>
<path d="M40.6 46.375V42.375" stroke="#3483FA" stroke-miterlimit="10" stroke-linecap="square"/>
<path d="M40.6 23.475V6.375C40.6 4.175 38.8 2.375 36.6 2.375H12.6C10.4 2.375 8.6 4.175 8.6 6.375V23.475" stroke="#3483FA" stroke-miterlimit="10"/>
<path d="M46.6 42.375V28.375C46.6 25.575 44.4 23.375 41.6 23.375C38.8 23.375 36.6 25.575 36.6 28.375V32.375H12.6V28.375C12.6 25.575 10.4 23.375 7.6 23.375C4.8 23.375 2.6 25.575 2.6 28.375V42.375H46.6Z" stroke="#3483FA" stroke-miterlimit="10" stroke-linecap="square"/>
</g>
<defs>
<clipPath id="clip0_1_1815">
<rect width="48" height="48" fill="white" transform="translate(0.599998 0.375)"/>
</clipPath>
</defs>
</svg>
