<svg width="49" height="49" viewBox="0 0 49 49" fill="none" xmlns="http://www.w3.org/2000/svg">
<g clip-path="url(#clip0_1_1827)">
<path d="M24.6 32.375C19.077 32.375 14.6 27.898 14.6 22.375V12.375C14.6 6.852 19.077 2.375 24.6 2.375C30.123 2.375 34.6 6.852 34.6 12.375V22.375C34.6 27.898 30.123 32.375 24.6 32.375Z" stroke="#3483FA" stroke-miterlimit="10" stroke-linecap="square"/>
<path d="M14.6 46.375H34.6" stroke="#3483FA" stroke-miterlimit="10" stroke-linecap="square"/>
<path d="M24.6 38.375V46.375" stroke="#3483FA" stroke-miterlimit="10" stroke-linecap="square"/>
<path d="M40.6 22.375C40.6 31.212 33.437 38.375 24.6 38.375C15.763 38.375 8.6 31.212 8.6 22.375" stroke="#3483FA" stroke-miterlimit="10" stroke-linecap="square"/>
<path d="M14.6 14.375H19.6" stroke="#3483FA" stroke-miterlimit="10" stroke-linecap="square"/>
<path d="M14.6 21.375H19.6" stroke="#3483FA" stroke-miterlimit="10" stroke-linecap="square"/>
<path d="M29.6 14.375H34.6" stroke="#3483FA" stroke-miterlimit="10" stroke-linecap="square"/>
<path d="M29.6 21.375H34.6" stroke="#3483FA" stroke-miterlimit="10" stroke-linecap="square"/>
</g>
<defs>
<clipPath id="clip0_1_1827">
<rect width="48" height="48" fill="white" transform="translate(0.599998 0.375)"/>
</clipPath>
</defs>
</svg>
