<svg width="49" height="49" viewBox="0 0 49 49" fill="none" xmlns="http://www.w3.org/2000/svg">
<g clip-path="url(#clip0_1_1799)">
<path d="M16.5922 3.875L24.5922 9.875L32.5922 3.875" stroke="#3483FA" stroke-miterlimit="10"/>
<path d="M2.59219 25.675L10.7922 19.875L7.59219 10.475" stroke="#3483FA" stroke-miterlimit="10"/>
<path d="M18.9922 45.675L16.0922 36.075L6.09219 36.275" stroke="#3483FA" stroke-miterlimit="10"/>
<path d="M43.0922 36.275L33.0922 36.075L30.1922 45.675" stroke="#3483FA" stroke-miterlimit="10"/>
<path d="M41.5922 10.475L38.3922 19.875L46.5922 25.675" stroke="#3483FA" stroke-miterlimit="10"/>
<path d="M28.5922 30.375H20.5922L16.5922 22.375L24.5922 16.375L32.5922 22.375L28.5922 30.375Z" stroke="#3483FA" stroke-miterlimit="10" stroke-linecap="square"/>
<path d="M24.5922 46.375C36.7425 46.375 46.5922 36.5253 46.5922 24.375C46.5922 12.2247 36.7425 2.375 24.5922 2.375C12.4419 2.375 2.59219 12.2247 2.59219 24.375C2.59219 36.5253 12.4419 46.375 24.5922 46.375Z" stroke="#3483FA" stroke-miterlimit="10" stroke-linecap="square"/>
</g>
<defs>
<clipPath id="clip0_1_1799">
<rect width="48" height="48" fill="white" transform="translate(0.592194 0.375)"/>
</clipPath>
</defs>
</svg>
