<svg width="49" height="49" viewBox="0 0 49 49" fill="none" xmlns="http://www.w3.org/2000/svg">
<g clip-path="url(#clip0_1_1905)">
<path d="M7.59219 6.375H12.5922" stroke="#3483FA" stroke-miterlimit="10" stroke-linecap="square"/>
<path d="M5.59219 43.375H43.5922C45.2492 43.375 46.5922 42.032 46.5922 40.375V14.375C46.5922 12.718 45.2492 11.375 43.5922 11.375H35.5922L31.5932 5.375H21.5922L17.5922 11.375H5.59219C3.93519 11.375 2.59219 12.718 2.59219 14.375V40.375C2.59219 42.032 3.93519 43.375 5.59219 43.375Z" stroke="#3483FA" stroke-miterlimit="10" stroke-linecap="square"/>
<path d="M26.5922 37.375C32.115 37.375 36.5922 32.8978 36.5922 27.375C36.5922 21.8522 32.115 17.375 26.5922 17.375C21.0693 17.375 16.5922 21.8522 16.5922 27.375C16.5922 32.8978 21.0693 37.375 26.5922 37.375Z" stroke="#3483FA" stroke-miterlimit="10" stroke-linecap="square"/>
<path d="M10.5922 20.375C11.1445 20.375 11.5922 19.9273 11.5922 19.375C11.5922 18.8227 11.1445 18.375 10.5922 18.375C10.0399 18.375 9.59219 18.8227 9.59219 19.375C9.59219 19.9273 10.0399 20.375 10.5922 20.375Z" stroke="#3483FA" stroke-miterlimit="10" stroke-linecap="square"/>
<path d="M10.5922 20.375C11.1445 20.375 11.5922 19.9273 11.5922 19.375C11.5922 18.8227 11.1445 18.375 10.5922 18.375C10.0399 18.375 9.59219 18.8227 9.59219 19.375C9.59219 19.9273 10.0399 20.375 10.5922 20.375Z" fill="#3483FA"/>
</g>
<defs>
<clipPath id="clip0_1_1905">
<rect width="48" height="48" fill="white" transform="translate(0.592194 0.375)"/>
</clipPath>
</defs>
</svg>
