<svg width="49" height="49" viewBox="0 0 49 49" fill="none" xmlns="http://www.w3.org/2000/svg">
<g clip-path="url(#clip0_1_1738)">
<path d="M42.5922 20.375L40.8232 7.111C40.6912 6.117 39.8432 5.375 38.8412 5.375H10.3432C9.34116 5.375 8.49316 6.117 8.36116 7.111L6.59216 20.375" stroke="#3483FA" stroke-miterlimit="10"/>
<path d="M14.5922 37.375V43.375H5.59216V37.375" stroke="#3483FA" stroke-miterlimit="10" stroke-linecap="square"/>
<path d="M43.5922 37.375V43.375H34.5922V37.375" stroke="#3483FA" stroke-miterlimit="10" stroke-linecap="square"/>
<path d="M46.5922 37.375H2.59216V26.778C2.59216 25.87 2.90116 24.988 3.46916 24.279L6.59216 20.375H42.5922L45.7152 24.279C46.2832 24.989 46.5922 25.87 46.5922 26.778V37.375Z" stroke="#3483FA" stroke-miterlimit="10" stroke-linecap="square"/>
<path d="M38.5922 32.375C40.249 32.375 41.5922 31.0319 41.5922 29.375C41.5922 27.7181 40.249 26.375 38.5922 26.375C36.9353 26.375 35.5922 27.7181 35.5922 29.375C35.5922 31.0319 36.9353 32.375 38.5922 32.375Z" stroke="#3483FA" stroke-miterlimit="10" stroke-linecap="square"/>
<path d="M10.5922 32.375C12.249 32.375 13.5922 31.0319 13.5922 29.375C13.5922 27.7181 12.249 26.375 10.5922 26.375C8.93531 26.375 7.59216 27.7181 7.59216 29.375C7.59216 31.0319 8.93531 32.375 10.5922 32.375Z" stroke="#3483FA" stroke-miterlimit="10" stroke-linecap="square"/>
<path d="M21.5922 29.375H27.5922" stroke="#3483FA" stroke-miterlimit="10" stroke-linecap="square"/>
</g>
<defs>
<clipPath id="clip0_1_1738">
<rect width="48" height="48" fill="white" transform="translate(0.592163 0.375)"/>
</clipPath>
</defs>
</svg>
