<svg width="49" height="49" viewBox="0 0 49 49" fill="none" xmlns="http://www.w3.org/2000/svg">
<g clip-path="url(#clip0_1_1918)">
<path d="M46.1 9.97497L40.2 15.875L33.1 8.77497L39 2.87497C37.6 2.47497 36.2 2.27497 34.6 2.37497C29 2.87497 24.5 7.87497 24.6 13.475C24.6 14.575 24.8 15.675 25.1 16.675L5.90002 33.675C3.00002 36.175 2.90002 40.675 5.60002 43.375C8.30002 46.075 12.7 45.975 15.3 43.075L32.3 23.875C34 24.375 35.9 24.575 37.9 24.175C41.9 23.375 45.2 20.375 46.3 16.475C46.8 14.175 46.7 11.975 46.1 9.97497Z" stroke="#3483FA" stroke-miterlimit="10" stroke-linecap="square"/>
</g>
<defs>
<clipPath id="clip0_1_1918">
<rect width="48" height="48" fill="white" transform="translate(0.600006 0.375)"/>
</clipPath>
</defs>
</svg>
