<svg width="49" height="49" viewBox="0 0 49 49" fill="none" xmlns="http://www.w3.org/2000/svg">
<g clip-path="url(#clip0_1_1844)">
<path d="M7.62024 23.5385C14.6098 26.7385 19.7638 33.2534 21.2032 41.0356" stroke="#3483FA" stroke-miterlimit="10"/>
<path d="M41.5798 23.5385C34.5902 26.7385 29.4363 33.2534 27.9968 41.0356" stroke="#3483FA" stroke-miterlimit="10"/>
<path d="M8.68936 18.375C8.68936 18.375 16.663 17.375 24.6003 17.375C32.5375 17.375 40.5108 18.375 40.5108 18.375" stroke="#3483FA" stroke-miterlimit="10"/>
<path d="M24.6 46.375C36.7503 46.375 46.6 36.5253 46.6 24.375C46.6 12.2247 36.7503 2.375 24.6 2.375C12.4497 2.375 2.60001 12.2247 2.60001 24.375C2.60001 36.5253 12.4497 46.375 24.6 46.375Z" stroke="#3483FA" stroke-miterlimit="10" stroke-linecap="square"/>
<path d="M24.6 41.375C33.9888 41.375 41.6 33.7638 41.6 24.375C41.6 14.9862 33.9888 7.375 24.6 7.375C15.2112 7.375 7.60001 14.9862 7.60001 24.375C7.60001 33.7638 15.2112 41.375 24.6 41.375Z" stroke="#3483FA" stroke-miterlimit="10" stroke-linecap="square"/>
<path d="M24.6 30.375C26.8091 30.375 28.6 28.5841 28.6 26.375C28.6 24.1659 26.8091 22.375 24.6 22.375C22.3909 22.375 20.6 24.1659 20.6 26.375C20.6 28.5841 22.3909 30.375 24.6 30.375Z" stroke="#3483FA" stroke-miterlimit="10" stroke-linecap="square"/>
</g>
<defs>
<clipPath id="clip0_1_1844">
<rect width="48" height="48" fill="white" transform="translate(0.600006 0.375)"/>
</clipPath>
</defs>
</svg>
