<svg width="49" height="49" viewBox="0 0 49 49" fill="none" xmlns="http://www.w3.org/2000/svg">
<g clip-path="url(#clip0_1_1887)">
<path d="M24.5922 46.375C35.6379 46.375 44.5922 37.4207 44.5922 26.375C44.5922 15.3293 35.6379 6.375 24.5922 6.375C13.5465 6.375 4.59219 15.3293 4.59219 26.375C4.59219 37.4207 13.5465 46.375 24.5922 46.375Z" stroke="#3483FA" stroke-miterlimit="10" stroke-linecap="square"/>
<path d="M24.5922 33.375L27.5922 29.375H21.5922L24.5922 33.375Z" stroke="#3483FA" stroke-miterlimit="10" stroke-linecap="square"/>
<path d="M24.5922 33.375L27.5922 29.375H21.5922L24.5922 33.375Z" fill="#3483FA"/>
<path d="M24.5922 33.375V37.375" stroke="#3483FA" stroke-miterlimit="10" stroke-linecap="square"/>
<path d="M20.5922 37.375H28.5922" stroke="#3483FA" stroke-miterlimit="10" stroke-linecap="square"/>
<path d="M17.5922 24.375C18.6968 24.375 19.5922 23.4796 19.5922 22.375C19.5922 21.2704 18.6968 20.375 17.5922 20.375C16.4876 20.375 15.5922 21.2704 15.5922 22.375C15.5922 23.4796 16.4876 24.375 17.5922 24.375Z" fill="#3483FA"/>
<path d="M31.5922 24.375C32.6968 24.375 33.5922 23.4796 33.5922 22.375C33.5922 21.2704 32.6968 20.375 31.5922 20.375C30.4876 20.375 29.5922 21.2704 29.5922 22.375C29.5922 23.4796 30.4876 24.375 31.5922 24.375Z" fill="#3483FA"/>
<path d="M14.5342 9.085C14.5632 8.846 14.5922 8.622 14.5922 8.375C14.5922 5.061 11.9062 2.375 8.59219 2.375C5.27819 2.375 2.59219 5.061 2.59219 8.375C2.59219 11.689 5.27819 14.375 8.59219 14.375" stroke="#3483FA" stroke-miterlimit="10"/>
<path d="M34.6502 9.085C34.6212 8.846 34.5922 8.622 34.5922 8.375C34.5922 5.061 37.2782 2.375 40.5922 2.375C43.9062 2.375 46.5922 5.061 46.5922 8.375C46.5922 11.689 43.9062 14.375 40.5922 14.375" stroke="#3483FA" stroke-miterlimit="10"/>
</g>
<defs>
<clipPath id="clip0_1_1887">
<rect width="48" height="48" fill="white" transform="translate(0.592194 0.375)"/>
</clipPath>
</defs>
</svg>
