<svg width="41" height="23" viewBox="0 0 41 23" fill="none" xmlns="http://www.w3.org/2000/svg">
<g clip-path="url(#clip0_1_1495)">
<path d="M2.74829 5.34607H7.87512L5.31122 9.87583H9.58439L2.74829 18.029L4.45658 12.5939H0.184387L2.74829 5.34607ZM14.0546 14.6466H12.1434L13.7766 7.31485H19.2088L18.842 8.96363H15.32L15.0761 10.107H18.5093L18.1424 11.7558H14.6985L14.0546 14.6466ZM23.2917 14.7792C21.0146 14.7792 19.8927 13.7012 19.8927 12.1627C19.8927 12.0417 19.9259 11.789 19.9483 11.6788L20.9259 7.31485H22.8693L21.9034 11.6349C21.8917 11.6905 21.8702 11.8105 21.8702 11.9431C21.881 12.548 22.3483 13.1305 23.2917 13.1305C24.3141 13.1305 24.8361 12.4924 25.0244 11.6349L25.9912 7.31485H27.9239L26.958 11.668C26.558 13.4485 25.5805 14.7792 23.2917 14.7792ZM33.1629 14.6466H28.2751L29.9073 7.31485H31.8185L30.5629 12.9978H33.5288L33.1629 14.6466ZM39.678 14.6466H34.7902L36.4234 7.31485H38.3346L37.079 12.9978H40.0449L39.678 14.6466Z" fill="#00A650"/>
</g>
<defs>
<clipPath id="clip0_1_1495">
<rect width="40" height="22" fill="white" transform="translate(0.184387 0.6875)"/>
</clipPath>
</defs>
</svg>
