<svg width="40" height="23" viewBox="0 0 40 23" fill="none" xmlns="http://www.w3.org/2000/svg">
<g clip-path="url(#clip0_1_1530)">
<path d="M2.5639 5.34607H7.69073L5.12683 9.87583H9.4L2.5639 18.029L4.2722 12.5939H0L2.5639 5.34607ZM13.8702 14.6466H11.959L13.5922 7.31485H19.0244L18.6576 8.96363H15.1356L14.8917 10.107H18.3249L17.958 11.7558H14.5141L13.8702 14.6466ZM23.1073 14.7792C20.8302 14.7792 19.7083 13.7012 19.7083 12.1627C19.7083 12.0417 19.7415 11.789 19.7639 11.6788L20.7415 7.31485H22.6849L21.719 11.6349C21.7073 11.6905 21.6859 11.8105 21.6859 11.9431C21.6966 12.548 22.1639 13.1305 23.1073 13.1305C24.1298 13.1305 24.6517 12.4924 24.84 11.6349L25.8068 7.31485H27.7395L26.7737 11.668C26.3737 13.4485 25.3961 14.7792 23.1073 14.7792ZM32.9785 14.6466H28.0907L29.7229 7.31485H31.6341L30.3785 12.9978H33.3444L32.9785 14.6466ZM39.4937 14.6466H34.6059L36.239 7.31485H38.1502L36.8946 12.9978H39.8605L39.4937 14.6466Z" fill="#00A650"/>
</g>
<defs>
<clipPath id="clip0_1_1530">
<rect width="40" height="22" fill="white" transform="translate(0 0.6875)"/>
</clipPath>
</defs>
</svg>
