<svg width="49" height="49" viewBox="0 0 49 49" fill="none" xmlns="http://www.w3.org/2000/svg">
<g clip-path="url(#clip0_1_1414)">
<path fill-rule="evenodd" clip-rule="evenodd" d="M24.6562 48C37.6349 48 48.1562 37.4787 48.1562 24.5C48.1562 11.5213 37.6349 1 24.6562 1C11.6776 1 1.15625 11.5213 1.15625 24.5C1.15625 37.4787 11.6776 48 24.6562 48Z" stroke="#EEEEEE"/>
<path fill-rule="evenodd" clip-rule="evenodd" d="M15.6563 33.5H18.6563V21.5H15.6563V33.5Z" fill="#0864EE"/>
<path fill-rule="evenodd" clip-rule="evenodd" d="M20.6563 33.5H23.6563V21.5H20.6563V33.5Z" fill="#0864EE"/>
<path fill-rule="evenodd" clip-rule="evenodd" d="M25.6563 33.5H28.6563V21.5H25.6563V33.5Z" fill="#0864EE"/>
<path fill-rule="evenodd" clip-rule="evenodd" d="M30.6563 33.5H33.6563V21.5H30.6563V33.5Z" fill="#0864EE"/>
<path fill-rule="evenodd" clip-rule="evenodd" d="M13.6562 35.5H35.6562V32.5H13.6562V35.5Z" fill="#5697FA"/>
<path fill-rule="evenodd" clip-rule="evenodd" d="M25.3022 11.0467L36.1974 20.2657C36.4925 20.5155 36.5293 20.9571 36.2796 21.2523C36.1466 21.4094 35.9511 21.5001 35.7452 21.5001H13.5672C13.1806 21.5001 12.8672 21.1867 12.8672 20.8001C12.8672 20.5942 12.9579 20.3987 13.1151 20.2657L24.0103 11.0467C24.3831 10.7312 24.9293 10.7312 25.3022 11.0467Z" fill="#5697FA"/>
<path fill-rule="evenodd" clip-rule="evenodd" d="M19.8659 18.5H29.476L24.6563 14.4363" fill="#0864EE"/>
</g>
<defs>
<clipPath id="clip0_1_1414">
<rect width="48" height="48" fill="white" transform="translate(0.65625 0.5)"/>
</clipPath>
</defs>
</svg>
